<?xml version="1.0" encoding="UTF-8" standalone="no"?>
<!DOCTYPE svg PUBLIC "-//W3C//DTD SVG 1.1//EN" "http://www.w3.org/Graphics/SVG/1.1/DTD/svg11.dtd">
<svg width="100%" height="100%" viewBox="0 0 2052 521" version="1.1" xmlns="http://www.w3.org/2000/svg" xmlns:xlink="http://www.w3.org/1999/xlink" xml:space="preserve" xmlns:serif="http://www.serif.com/" style="fill-rule:evenodd;clip-rule:evenodd;stroke-linejoin:round;stroke-miterlimit:2;">
    <g transform="matrix(1.212858,0,0,1.212858,-490.987576,-274.908402)">
        <path d="M404.819,230.031L479.526,230.031C510.483,230.031 532.553,234.621 545.737,243.8C558.92,252.98 565.512,266.164 565.512,283.351C565.512,292.726 563.828,300.685 560.458,307.228C557.089,313.771 552.841,318.947 547.714,322.755C542.587,326.564 537.338,329.152 531.967,330.519L531.967,331.984C537.827,333.449 543.662,335.866 549.472,339.235C555.283,342.604 560.117,347.633 563.974,354.323C567.832,361.012 569.76,370.07 569.76,381.496C569.76,394.484 566.464,405.666 559.873,415.041C553.281,424.416 543.881,431.618 531.674,436.647C519.467,441.676 504.965,444.191 488.168,444.191L404.819,444.191L404.819,230.031ZM462.68,312.209L480.112,312.209C489.682,312.209 496.42,310.231 500.327,306.276C504.233,302.321 506.186,297.511 506.186,291.847C506.186,285.988 503.964,281.52 499.521,278.444C495.078,275.368 488.217,273.83 478.94,273.83L462.68,273.83L462.68,312.209ZM462.68,354.543L462.68,399.513L483.041,399.513C493.1,399.513 500.131,397.34 504.135,392.995C508.139,388.649 510.141,383.205 510.141,376.662C510.141,372.853 509.287,369.264 507.578,365.895C505.869,362.526 502.963,359.792 498.862,357.692C494.76,355.592 489.096,354.543 481.87,354.543L462.68,354.543Z"/>
        <path d="M720.064,444.191L709.517,404.054L639.937,404.054L629.097,444.191L565.523,444.191L635.396,229.152L712.593,229.152L783.345,444.191L720.064,444.191ZM697.505,356.593L688.277,321.437C687.3,317.629 685.884,312.184 684.029,305.104C682.173,298.024 680.342,290.7 678.535,283.131C676.729,275.563 675.337,269.338 674.361,264.455C673.482,269.338 672.237,275.368 670.625,282.546C669.014,289.723 667.354,296.828 665.645,303.859C663.936,310.89 662.447,316.75 661.177,321.437L651.948,356.593L697.505,356.593Z"/>
        <path d="M861.356,230.031C880.789,230.031 896.951,232.399 909.842,237.135C922.732,241.872 932.425,248.927 938.919,258.302C945.413,267.677 948.66,279.347 948.66,293.312C948.66,302.004 947.195,309.914 944.266,317.043C941.336,324.171 937.161,330.544 931.741,336.159C926.321,341.774 919.852,346.681 912.332,350.88L974.734,444.191L909.109,444.191L863.699,366.261L849.051,366.261L849.051,444.191L791.19,444.191L791.19,230.031L861.356,230.031ZM860.477,273.83L849.051,273.83L849.051,322.755L859.891,322.755C868.777,322.755 876.053,320.802 881.717,316.896C887.381,312.99 890.213,306.007 890.213,295.949C890.213,289.015 887.869,283.595 883.182,279.689C878.494,275.783 870.926,273.83 860.477,273.83Z"/>
        <path d="M1071.278,274.416C1064.442,274.416 1058.339,275.856 1052.968,278.737C1047.597,281.618 1043.007,285.793 1039.198,291.261C1035.39,296.73 1032.484,303.395 1030.482,311.256C1028.48,319.118 1027.479,328.029 1027.479,337.99C1027.479,351.466 1029.188,362.795 1032.606,371.974C1036.024,381.154 1041.224,388.088 1048.207,392.775C1055.189,397.463 1063.954,399.806 1074.501,399.806C1084.071,399.806 1093.275,398.488 1102.113,395.851C1110.951,393.214 1119.862,390.041 1128.847,386.33L1128.847,435.255C1119.374,439.455 1109.682,442.482 1099.769,444.338C1089.857,446.193 1079.335,447.121 1068.202,447.121C1044.96,447.121 1025.941,442.506 1011.146,433.278C996.351,424.049 985.463,411.232 978.48,394.826C971.498,378.42 968.007,359.377 968.007,337.697C968.007,321.486 970.277,306.642 974.818,293.166C979.359,279.689 986.024,267.995 994.813,258.083C1003.602,248.171 1014.467,240.504 1027.406,235.085C1040.346,229.665 1055.165,226.955 1071.864,226.955C1082.216,226.955 1093.129,228.151 1104.603,230.544C1116.078,232.936 1127.284,236.769 1138.222,242.043L1120.497,287.599C1112.684,283.888 1104.774,280.763 1096.766,278.224C1088.759,275.685 1080.263,274.416 1071.278,274.416Z"/>
        <path d="M1273.443,444.191L1146.295,444.191L1146.295,230.031L1273.443,230.031L1273.443,276.466L1204.156,276.466L1204.156,310.158L1268.316,310.158L1268.316,356.593L1204.156,356.593L1204.156,397.023L1273.443,397.023L1273.443,444.191Z"/>
        <path d="M1298.643,444.191L1298.643,230.031L1356.504,230.031L1356.504,397.463L1438.975,397.463L1438.975,444.191L1298.643,444.191Z"/>
        <path d="M1643.343,336.818C1643.343,353.322 1641.365,368.337 1637.41,381.862C1633.455,395.387 1627.279,407.033 1618.88,416.798C1610.482,426.564 1599.691,434.059 1586.507,439.284C1573.323,444.508 1557.552,447.121 1539.193,447.121C1521.224,447.121 1505.672,444.508 1492.537,439.284C1479.403,434.059 1468.587,426.588 1460.091,416.872C1451.595,407.155 1445.296,395.509 1441.195,381.935C1437.093,368.361 1435.042,353.224 1435.042,336.525C1435.042,314.259 1438.729,294.899 1446.102,278.444C1453.475,261.989 1464.876,249.245 1480.306,240.212C1495.736,231.178 1515.462,226.662 1539.486,226.662C1563.9,226.662 1583.748,231.203 1599.032,240.285C1614.315,249.367 1625.521,262.16 1632.65,278.664C1639.779,295.168 1643.343,314.552 1643.343,336.818ZM1495.98,336.818C1495.98,349.709 1497.445,360.793 1500.374,370.07C1503.304,379.347 1507.943,386.476 1514.29,391.457C1520.638,396.437 1528.939,398.927 1539.193,398.927C1549.837,398.927 1558.309,396.437 1564.608,391.457C1570.907,386.476 1575.448,379.347 1578.231,370.07C1581.014,360.793 1582.406,349.709 1582.406,336.818C1582.406,317.482 1579.183,302.199 1572.738,290.968C1566.292,279.738 1555.208,274.123 1539.486,274.123C1529.036,274.123 1520.614,276.662 1514.217,281.74C1507.821,286.818 1503.182,294.045 1500.301,303.42C1497.42,312.795 1495.98,323.927 1495.98,336.818Z"/>
        <path d="M1867.621,444.191L1791.742,444.191L1713.52,293.312L1712.201,293.312C1712.69,297.902 1713.129,303.42 1713.52,309.865C1713.91,316.31 1714.252,322.878 1714.545,329.567C1714.838,336.256 1714.984,342.287 1714.984,347.658L1714.984,444.191L1663.715,444.191L1663.715,230.031L1739.301,230.031L1817.231,378.859L1818.109,378.859C1817.816,374.171 1817.523,368.727 1817.231,362.526C1816.938,356.325 1816.669,350.05 1816.425,343.703C1816.181,337.355 1816.059,331.74 1816.059,326.857L1816.059,230.031L1867.621,230.031L1867.621,444.191Z"/>
        <path d="M2033.007,444.191L2022.46,404.054L1952.88,404.054L1942.04,444.191L1878.466,444.191L1948.339,229.152L2025.536,229.152L2096.288,444.191L2033.007,444.191ZM2010.448,356.593L2001.22,321.437C2000.243,317.629 1998.827,312.184 1996.972,305.104C1995.116,298.024 1993.285,290.7 1991.478,283.131C1989.672,275.563 1988.28,269.338 1987.304,264.455C1986.425,269.338 1985.18,275.368 1983.568,282.546C1981.957,289.723 1980.297,296.828 1978.588,303.859C1976.879,310.89 1975.39,316.75 1974.12,321.437L1964.891,356.593L2010.448,356.593Z"/>
    </g>
    <g transform="matrix(1,0,0,1,-217.112607,-212.661727)">
        <g transform="matrix(0.435632,0,0,0.99993,128.765183,-22.611395)">
            <rect x="257.538" y="552.733" width="80.327" height="165.043"/>
            <path d="M747.541,717.776L645.448,717.776L480.648,592.921L478.316,592.921C479.007,598.114 479.612,603.345 480.13,608.613C480.648,613.881 481.167,619.13 481.685,624.361C482.203,629.591 482.721,634.841 483.24,640.109L483.24,717.776L411.464,717.776L411.464,552.733L512.779,552.733L677.32,676.346L679.134,676.346C678.788,671.228 678.357,666.148 677.838,661.106C677.32,656.064 676.845,651.021 676.413,645.979C675.981,640.937 675.593,635.894 675.247,630.852L675.247,552.733L747.541,552.733L747.541,717.776Z"/>
        </g>
        <g transform="matrix(0.706362,0,0,0.932853,582.105129,14.067101)">
            <path d="M457.327,640.257C457.327,660.183 452.293,676.821 442.225,690.172C432.157,703.523 417.588,713.567 398.518,720.303C379.448,727.039 356.489,730.407 329.642,730.407L263.482,730.407L263.482,553.496L336.833,553.496C361.337,553.496 382.591,556.783 400.596,563.358C418.601,569.933 432.557,579.653 442.465,592.52C452.373,605.387 457.327,621.3 457.327,640.257ZM405.869,641.225C405.869,628.157 403.339,617.407 398.279,608.977C393.218,600.547 385.76,594.315 375.906,590.282C366.051,586.248 353.879,584.232 339.39,584.232L313.022,584.232L313.022,699.429L334.276,699.429C358.46,699.429 376.438,694.549 388.211,684.787C399.983,675.026 405.869,660.506 405.869,641.225Z"/>
            <path d="M635.356,730.407L618.416,688.297L533.24,688.297L516.3,730.407L462.925,730.407L545.385,552.77L605.951,552.77L688.731,730.407L635.356,730.407ZM606.591,656.835L589.651,615.693C588.586,612.95 587.174,609.421 585.416,605.105C583.658,600.789 581.901,596.393 580.143,591.915C578.385,587.438 576.973,583.546 575.908,580.238C574.842,583.546 573.378,587.64 571.513,592.52C569.649,597.401 567.864,602.019 566.16,606.376C564.455,610.732 563.23,613.838 562.484,615.693L545.705,656.835L606.591,656.835Z"/>
            <path d="M777.428,626.342L826.169,553.496L879.544,553.496L802.038,661.554L802.038,730.407L752.818,730.407L752.818,662.764L675.312,553.496L729.007,553.496L777.428,626.342Z"/>
        </g>
    </g>
    <g transform="matrix(1,0,0,1,-236.112607,-212.661727)">
        <g transform="matrix(0.868307,0,0,0.868307,96.245934,108.230223)">
            <circle cx="618.216" cy="583.501" r="136.024" style="fill:rgb(0,178,0);"/>
        </g>
        <g transform="matrix(0.435632,0,0,0.99993,392.374412,3.879039)">
            <path d="M608.591,668.758L533.68,668.758L533.68,603.934C533.68,601.031 533.774,597.817 533.961,594.29C534.147,590.763 534.428,587.589 534.801,584.768C531.563,586.45 528.543,587.888 525.741,589.081C522.939,590.275 520.23,591.387 517.615,592.418L486.604,603.568L448.309,583.059L542.087,549.772L608.591,549.772L608.591,668.758Z" style="fill:white;"/>
        </g>
    </g>
    <g transform="matrix(1,0,0,1,-219.112607,-213.661727)">
        <g transform="matrix(0.994076,0,0,1.029876,7.694912,-20.741354)">
            <path d="M2271.966,557.398L2271.966,671.217C2271.966,683.927 2261.276,694.245 2248.109,694.245L1322.85,694.245C1309.683,694.245 1298.993,683.927 1298.993,671.217L1298.993,557.398C1298.993,544.689 1309.683,534.371 1322.85,534.371L2248.109,534.371C2261.276,534.371 2271.966,544.689 2271.966,557.398Z"/>
        </g>
        <g transform="matrix(1.376274,0,0,0.440923,1037.662472,346.686912)">
            <path d="M218.642,549.929L232.213,549.929C237.836,549.929 241.845,552.531 244.24,557.736C246.635,562.941 247.832,570.416 247.832,580.161C247.832,585.477 247.526,589.989 246.914,593.699C246.302,597.409 245.531,600.343 244.599,602.503C243.668,604.662 242.714,606.13 241.739,606.905L241.739,607.735C242.803,608.566 243.863,609.936 244.919,611.847C245.974,613.757 246.852,616.609 247.553,620.401C248.254,624.194 248.604,629.33 248.604,635.808C248.604,643.172 248.005,649.512 246.808,654.828C245.61,660.144 243.903,664.227 241.686,667.079C239.468,669.93 236.834,671.356 233.783,671.356L218.642,671.356L218.642,549.929ZM229.153,596.523L232.319,596.523C234.058,596.523 235.282,595.402 235.991,593.159C236.701,590.917 237.056,588.19 237.056,584.978C237.056,581.656 236.652,579.123 235.845,577.379C235.038,575.634 233.792,574.762 232.106,574.762L229.153,574.762L229.153,596.523ZM229.153,620.526L229.153,646.024L232.851,646.024C234.679,646.024 235.956,644.792 236.683,642.328C237.41,639.864 237.774,636.777 237.774,633.067C237.774,630.908 237.619,628.873 237.308,626.963C236.998,625.053 236.47,623.502 235.725,622.312C234.98,621.121 233.951,620.526 232.639,620.526L229.153,620.526Z" style="fill:white;"/>
            <path d="M276.996,671.356L275.081,648.599L262.441,648.599L260.472,671.356L248.924,671.356L261.616,549.43L275.639,549.43L288.491,671.356L276.996,671.356ZM272.899,621.689L271.222,601.755C271.045,599.596 270.788,596.509 270.451,592.495C270.114,588.48 269.781,584.328 269.453,580.036C269.125,575.745 268.872,572.215 268.694,569.447C268.535,572.215 268.309,575.634 268.016,579.704C267.723,583.774 267.422,587.802 267.111,591.789C266.801,595.775 266.53,599.098 266.3,601.755L264.623,621.689L272.899,621.689Z" style="fill:white;"/>
            <path d="M303.207,549.929C306.737,549.929 309.673,551.271 312.015,553.957C314.356,556.642 316.117,560.643 317.296,565.958C318.476,571.274 319.066,577.891 319.066,585.809C319.066,590.737 318.8,595.222 318.268,599.264C317.735,603.306 316.977,606.919 315.993,610.103C315.008,613.286 313.833,616.069 312.467,618.45L323.802,671.356L311.881,671.356L303.633,627.17L300.972,627.17L300.972,671.356L290.461,671.356L290.461,549.929L303.207,549.929ZM303.047,574.762L300.972,574.762L300.972,602.503L302.941,602.503C304.555,602.503 305.877,601.396 306.906,599.181C307.935,596.966 308.449,593.007 308.449,587.304C308.449,583.372 308.023,580.299 307.172,578.085C306.32,575.87 304.945,574.762 303.047,574.762Z" style="fill:white;"/>
            <path d="M342.429,575.095C341.188,575.095 340.079,575.911 339.103,577.545C338.128,579.178 337.294,581.545 336.602,584.646C335.91,587.747 335.382,591.526 335.019,595.983C334.655,600.44 334.473,605.493 334.473,611.141C334.473,618.782 334.784,625.205 335.405,630.41C336.025,635.614 336.97,639.546 338.238,642.203C339.507,644.861 341.099,646.19 343.015,646.19C344.753,646.19 346.425,645.443 348.03,643.948C349.636,642.453 351.255,640.653 352.887,638.549L352.887,666.29C351.166,668.671 349.405,670.387 347.605,671.439C345.804,672.491 343.893,673.017 341.871,673.017C337.649,673.017 334.194,670.401 331.506,665.168C328.819,659.936 326.841,652.669 325.573,643.366C324.304,634.064 323.67,623.267 323.67,610.975C323.67,601.783 324.083,593.367 324.907,585.726C325.732,578.085 326.943,571.454 328.539,565.834C330.136,560.214 332.11,555.867 334.46,552.794C336.81,549.721 339.502,548.185 342.536,548.185C344.416,548.185 346.398,548.863 348.483,550.219C350.567,551.576 352.603,553.749 354.59,556.739L351.37,582.57C349.951,580.466 348.514,578.694 347.059,577.254C345.605,575.814 344.061,575.095 342.429,575.095Z" style="fill:white;"/>
            <path d="M381.332,671.356L358.236,671.356L358.236,549.929L381.332,549.929L381.332,576.257L368.746,576.257L368.746,595.36L380.401,595.36L380.401,621.689L368.746,621.689L368.746,644.612L381.332,644.612L381.332,671.356Z" style="fill:white;"/>
            <path d="M385.91,671.356L385.91,549.929L396.42,549.929L396.42,644.861L411.401,644.861L411.401,671.356L385.91,671.356Z" style="fill:white;"/>
            <path d="M451.794,610.476C451.794,619.834 451.435,628.347 450.717,636.016C449.998,643.685 448.876,650.288 447.351,655.825C445.825,661.362 443.865,665.611 441.47,668.574C439.075,671.536 436.21,673.017 432.875,673.017C429.611,673.017 426.786,671.536 424.401,668.574C422.015,665.611 420.05,661.375 418.507,655.866C416.963,650.357 415.819,643.754 415.074,636.057C414.329,628.361 413.957,619.778 413.957,610.31C413.957,597.686 414.626,586.709 415.966,577.379C417.305,568.049 419.376,560.823 422.179,555.701C424.981,550.579 428.565,548.018 432.929,548.018C437.363,548.018 440.969,550.593 443.745,555.743C446.521,560.892 448.557,568.146 449.852,577.503C451.147,586.861 451.794,597.852 451.794,610.476ZM425.026,610.476C425.026,617.785 425.292,624.07 425.824,629.33C426.356,634.59 427.199,638.632 428.352,641.456C429.505,644.28 431.013,645.692 432.875,645.692C434.809,645.692 436.348,644.28 437.492,641.456C438.636,638.632 439.461,634.59 439.967,629.33C440.472,624.07 440.725,617.785 440.725,610.476C440.725,599.513 440.14,590.847 438.969,584.48C437.798,578.112 435.785,574.928 432.929,574.928C431.031,574.928 429.501,576.368 428.339,579.247C427.177,582.127 426.334,586.224 425.811,591.54C425.287,596.855 425.026,603.167 425.026,610.476Z" style="fill:white;"/>
            <path d="M493.624,671.356L479.841,671.356L465.632,585.809L465.392,585.809C465.481,588.411 465.561,591.54 465.632,595.194C465.703,598.848 465.765,602.572 465.818,606.365C465.871,610.158 465.898,613.577 465.898,616.622L465.898,671.356L456.585,671.356L456.585,549.929L470.315,549.929L484.471,634.313L484.631,634.313C484.577,631.655 484.524,628.569 484.471,625.053C484.418,621.536 484.369,617.979 484.325,614.38C484.28,610.781 484.258,607.597 484.258,604.828L484.258,549.929L493.624,549.929L493.624,671.356Z" style="fill:white;"/>
            <path d="M523.667,671.356L521.751,648.599L509.112,648.599L507.143,671.356L495.594,671.356L508.287,549.43L522.31,549.43L535.162,671.356L523.667,671.356ZM519.569,621.689L517.892,601.755C517.715,599.596 517.458,596.509 517.121,592.495C516.784,588.48 516.451,584.328 516.123,580.036C515.795,575.745 515.542,572.215 515.365,569.447C515.205,572.215 514.979,575.634 514.686,579.704C514.393,583.774 514.092,587.802 513.781,591.789C513.471,595.775 513.2,599.098 512.97,601.755L511.293,621.689L519.569,621.689Z" style="fill:white;"/>
            <path d="M600.648,549.929L591.069,671.356L578.642,671.356L574.917,618.45C574.846,617.453 574.735,615.764 574.584,613.383C574.434,611.002 574.265,608.289 574.079,605.244C573.893,602.198 573.724,599.195 573.573,596.232C573.422,593.27 573.312,590.764 573.241,588.716C573.17,590.764 573.054,593.27 572.895,596.232C572.735,599.195 572.562,602.198 572.376,605.244C572.19,608.289 572.012,611.002 571.844,613.383C571.675,615.764 571.555,617.453 571.484,618.45L567.733,671.356L555.306,671.356L545.674,549.929L555.812,549.929L560.043,610.808C560.149,612.303 560.295,614.421 560.482,617.162C560.668,619.903 560.863,622.893 561.067,626.132C561.271,629.371 561.462,632.486 561.639,635.476C561.817,638.466 561.941,640.958 562.012,642.951C562.154,639.518 562.344,635.614 562.584,631.24C562.823,626.866 563.089,622.422 563.382,617.91C563.675,613.397 563.954,609.203 564.22,605.327C564.486,601.451 564.717,598.295 564.912,595.858L568.345,549.929L578.083,549.929L581.41,595.858C581.587,598.239 581.813,601.382 582.088,605.285C582.363,609.189 582.647,613.411 582.94,617.951C583.232,622.492 583.503,626.963 583.751,631.365C584,635.767 584.186,639.629 584.31,642.951C584.416,640.182 584.594,636.68 584.842,632.444C585.09,628.209 585.343,624.084 585.6,620.069C585.858,616.055 586.057,613.023 586.199,610.975L590.51,549.929L600.648,549.929Z" style="fill:white;"/>
            <rect x="603.443" y="549.929" width="10.564" height="121.427" style="fill:white;"/>
            <path d="M637.343,671.356L626.833,671.356L626.833,576.756L617.333,576.756L617.333,549.929L646.816,549.929L646.816,576.756L637.343,576.756L637.343,671.356Z" style="fill:white;"/>
            <path d="M683.484,671.356L672.92,671.356L672.92,621.855L660.707,621.855L660.707,671.356L650.143,671.356L650.143,549.929L660.707,549.929L660.707,594.945L672.92,594.945L672.92,549.929L683.484,549.929L683.484,671.356Z" style="fill:white;"/>
            <path d="M715.044,549.929C719.975,549.929 723.669,553.279 726.126,559.978C728.583,566.678 729.812,576.202 729.812,588.55C729.812,594.087 729.559,599.402 729.053,604.496C728.548,609.59 727.723,614.131 726.579,618.117C725.434,622.104 723.918,625.26 722.028,627.586C720.139,629.911 717.811,631.074 715.044,631.074L712.09,631.074L712.09,671.356L701.58,671.356L701.58,549.929L715.044,549.929ZM714.804,576.423L712.09,576.423L712.09,604.33L714.166,604.33C715.07,604.33 715.913,603.846 716.693,602.877C717.474,601.908 718.099,600.33 718.569,598.143C719.039,595.955 719.274,593.035 719.274,589.38C719.274,585.56 718.911,582.445 718.183,580.036C717.456,577.628 716.33,576.423 714.804,576.423Z" style="fill:white;"/>
            <path d="M757.645,671.356L755.729,648.599L743.09,648.599L741.121,671.356L729.573,671.356L742.265,549.43L756.288,549.43L769.14,671.356L757.645,671.356ZM753.547,621.689L751.871,601.755C751.694,599.596 751.437,596.509 751.099,592.495C750.762,588.48 750.43,584.328 750.102,580.036C749.773,575.745 749.521,572.215 749.343,569.447C749.184,572.215 748.957,575.634 748.665,579.704C748.372,583.774 748.07,587.802 747.76,591.789C747.45,595.775 747.179,599.098 746.948,601.755L745.272,621.689L753.547,621.689Z" style="fill:white;"/>
            <path d="M804.185,549.929L804.185,623.018C804.185,633.206 803.564,642.051 802.322,649.554C801.081,657.057 799.218,662.843 796.735,666.913C794.251,670.982 791.138,673.017 787.395,673.017C782.038,673.017 777.949,668.726 775.128,660.144C772.308,651.561 770.897,639.435 770.897,623.765L770.897,549.929L781.461,549.929L781.461,621.19C781.461,629.773 781.975,636.002 783.004,639.878C784.033,643.754 785.55,645.692 787.554,645.692C788.991,645.692 790.162,644.847 791.067,643.159C791.972,641.47 792.632,638.798 793.049,635.144C793.466,631.489 793.675,626.783 793.675,621.024L793.675,549.929L804.185,549.929Z" style="fill:white;"/>
            <path d="M810.12,671.356L810.12,549.929L820.63,549.929L820.63,644.861L835.611,644.861L835.611,671.356L810.12,671.356Z" style="fill:white;"/>
            <path d="M863.471,671.356L861.555,648.599L848.916,648.599L846.947,671.356L835.399,671.356L848.091,549.43L862.114,549.43L874.966,671.356L863.471,671.356ZM859.374,621.689L857.697,601.755C857.52,599.596 857.263,596.509 856.926,592.495C856.588,588.48 856.256,584.328 855.928,580.036C855.6,575.745 855.347,572.215 855.169,569.447C855.01,572.215 854.783,575.634 854.491,579.704C854.198,583.774 853.897,587.802 853.586,591.789C853.276,595.775 853.005,599.098 852.775,601.755L851.098,621.689L859.374,621.689Z" style="fill:white;"/>
        </g>
    </g>
</svg>
